<?xml version="1.0" encoding="UTF-8"?><svg xmlns="http://www.w3.org/2000/svg" xmlns:xlink="http://www.w3.org/1999/xlink" viewBox="0 0 523.19 75.09"><defs><style>.cls-1{fill:none;}.cls-2{fill:#8f790a;}.cls-3{fill:#98810a;}.cls-4{fill:#d7b307;}.cls-5{isolation:isolate;}.cls-6,.cls-7{fill:#f5b50f;}.cls-8{clip-path:url(#clippath-1);}.cls-9{fill:#937d0a;}.cls-10{fill:#8a760a;}.cls-11{fill:#86720a;}.cls-12{mix-blend-mode:screen;}.cls-7{opacity:.57;}.cls-13{fill:#9c840a;}.cls-14{fill:#fff;font-family:LeagueSpartan-Regular, 'League Spartan';font-size:32.86px;font-variation-settings:'wght' 400;}.cls-15{clip-path:url(#clippath);}</style><clipPath id="clippath"><path class="cls-1" d="M496.78,3.26l5.68,2.62c-4.54-2.1-9.59-3.26-14.92-3.26L481.86,0c5.33,0,10.39,1.16,14.92,3.26Z"/></clipPath><clipPath id="clippath-1"><path class="cls-1" d="M26.4,71.83l-5.68-2.62C8.42,63.53-.07,51.02,0,36.49.1,16.61,16.21.47,36,.45l5.68,2.62c-19.79.02-35.9,16.16-36,36.05-.07,14.52,8.42,27.03,20.72,32.71Z"/></clipPath></defs><g class="cls-5"><g id="Capa_1"><g class="cls-5"><g class="cls-5"><g class="cls-15"><g class="cls-5"><path class="cls-9" d="M487.54,2.62L481.86,0c.92,0,1.83.03,2.73.1l5.68,2.62c-.9-.07-1.81-.1-2.73-.1"/><path class="cls-3" d="M490.27,2.72l-5.68-2.62c2.62.2,5.16.68,7.59,1.41l5.68,2.62c-2.43-.73-4.97-1.21-7.59-1.41"/><path class="cls-13" d="M497.86,4.13l-5.68-2.62c1.58.48,3.12,1.06,4.6,1.75l5.68,2.62c-1.48-.68-3.02-1.27-4.6-1.75"/></g></g></g><polygon class="cls-9" points="41.68 3.07 36 .45 481.86 0 487.54 2.62 41.68 3.07"/><g class="cls-5"><g class="cls-8"><g class="cls-5"><path class="cls-11" d="M26.4,71.83l-5.68-2.62C8.42,63.53-.07,51.02,0,36.49.07,22.62,7.94,10.56,19.41,4.54l5.68,2.62C13.62,13.19,5.75,25.24,5.68,39.12c-.07,14.52,8.42,27.03,20.72,32.71"/><path class="cls-10" d="M25.09,7.16l-5.68-2.62c2.09-1.1,4.31-2,6.62-2.67l5.68,2.62c-2.31.67-4.52,1.57-6.62,2.67"/><path class="cls-2" d="M31.71,4.49l-5.68-2.62c2-.58,4.07-.99,6.2-1.22l5.68,2.62c-2.13.23-4.2.64-6.2,1.22"/><path class="cls-9" d="M37.91,3.27l-5.68-2.62c1.24-.13,2.5-.2,3.78-.2l5.68,2.62c-1.27,0-2.53.07-3.78.2"/></g></g></g><path class="cls-4" d="M487.54,2.62c19.79-.02,35.75,16.09,35.65,35.98s-16.22,36.02-36.01,36.04l-445.86.45c-19.79.02-35.74-16.09-35.64-35.97C5.78,19.23,21.89,3.09,41.68,3.07l445.86-.45Z"/></g><circle class="cls-7" cx="488.28" cy="38.26" r="34.36"/><text class="cls-14" transform="translate(36.76 50.23)"><tspan x="0" y="0">Evaluación de Liderazgo</tspan></text><g id="NYi6sG.tif" class="cls-12"><path class="cls-6" d="M502.12,62.94h-30.81c-1.45-.48-2.43-1.43-2.83-2.93V25.68c4.19-4.24,8.37-8.51,12.67-12.64l20.72-.04c1.63.26,2.92,1.6,3.08,3.26v43.42c-.16,1.65-1.31,2.77-2.83,3.26ZM470.04,26.75v33.12c0,.77,1.53,1.73,2.29,1.61h28.77c1.14-.04,2.16-.72,2.29-1.9V16.35c0-.66-.59-1.4-1.17-1.66-.11-.05-.76-.24-.83-.24h-19.16v9.41c0,1.06-1.91,2.88-2.97,2.88h-9.21ZM471.21,25.19h7.95c.2,0,.87-.46,1.02-.63.19-.21.59-1.01.59-1.27v-7.66l-9.55,9.56Z"/><path class="cls-6" d="M493.81,17.99c.38-.08.7.12.88.45l3.19,8.22c.34.9-.71,1.61-1.32.83-.32-.41-.46-1.48-.73-1.81-.06-.08-.1-.08-.19-.1-.91-.18-2.42.12-3.4.02-.3.1-.56,1.65-.93,1.99-.7.64-1.59-.18-1.21-1.01.92-2.2,1.69-4.47,2.59-6.68.21-.52.55-1.79,1.12-1.91ZM495.2,24.02l-1.22-3.12-1.22,3.12h2.44Z"/><path class="cls-6" d="M483.96,53.7l10.21-.02c1.06,0,1.15,1.44.1,1.56h-10.24c-.94-.09-1.01-1.38-.07-1.54Z"/><path class="cls-6" d="M483.86,44.04l10.41-.02c1.05.12.96,1.51-.1,1.57-3.18-.27-6.93.35-10.04,0-1.01-.11-1.16-1.15-.27-1.54Z"/><path class="cls-6" d="M483.76,34.38l10.85.03c.75.57.33,1.46-.53,1.51-3.12-.25-6.79.34-9.85,0-1.01-.11-1.32-.95-.47-1.54Z"/><path class="cls-6" d="M498.97,41.22c.45.53.08,1.26-.6,1.34-2.4.28-5.34-.22-7.8,0-1.04-.12-1.07-1.45-.1-1.56,2.5.23,5.56-.31,8,0,.15.02.41.12.5.23Z"/><path class="cls-6" d="M490.29,31.36h8.26c.8.11.94,1.41-.39,1.54-1.76.17-5.65.18-7.41,0-1.04-.1-1.44-1.02-.47-1.54Z"/><path class="cls-6" d="M489.96,51.99c-.5-.55-.07-1.26.6-1.34,2.43-.29,5.41.21,7.89,0,.98.23.9,1.44-.09,1.56-2.43.29-5.41-.22-7.9,0-.16-.02-.39-.11-.5-.23Z"/><path class="cls-6" d="M499.2,19.04c.07.08,1.02-.05,1.15.66.19,1.08-1.09.84-1.16.9-.06.06.21,1.07-.66,1.15-1,.1-.75-1.09-.8-1.15-.06-.06-1.07.21-1.15-.66-.09-.97,1.05-.81,1.15-.91.04-.04-.04-.47.05-.68.14-.31.61-.45.93-.35.68.22.42.96.49,1.03Z"/><path class="cls-6" d="M488.54,42.33c-.11.11-.44.21-.6.23-.81.09-3.1.1-3.89-.01-1.04-.15-.94-1.42-.1-1.55.67-.1,3.51-.1,4.18,0s.85.9.42,1.33Z"/><path class="cls-6" d="M488.54,50.87c.41.41.21,1.24-.42,1.33-.67.1-3.51.1-4.18,0-.84-.13-.94-1.4.1-1.55.79-.11,3.08-.1,3.89-.01.16.02.5.12.6.23Z"/><path class="cls-6" d="M483.76,31.35c1.33.11,3.09-.21,4.36-.01.92.14.84,1.4-.2,1.55-.74.1-3.04.1-3.78,0-.96-.13-1.18-1.02-.38-1.53Z"/><path class="cls-6" d="M498.97,44.24c.37.44.14,1.19-.43,1.32-.3.07-1.61.07-1.91,0-.8-.18-.81-1.41-.02-1.53.42-.07,2.1-.08,2.35.22Z"/><path class="cls-6" d="M496.53,34.38c.29-.07,1.91-.06,2.18.02.49.16.6,1.02.14,1.33-.4.27-1.98.26-2.42.07-.6-.27-.52-1.28.09-1.42Z"/><path class="cls-6" d="M496.63,53.7c.3-.07,1.7-.06,1.98.02.78.24.63,1.38-.06,1.52-.29.05-1.74.04-2-.04-.75-.23-.69-1.33.07-1.5Z"/><path class="cls-6" d="M474.27,46.91c-.14-.14-.41-.55-.48-.74-.26-.79-.22-3.98-.14-4.93.13-1.49.81-2.1,2.29-2.2.98-.07,4.11-.12,4.9.18.7.26,1.14.89,1.2,1.63.11,1.2.12,3.79,0,4.98-.09.85-.86,1.54-1.7,1.61-1.21.11-3.79.12-4.98,0-.39-.04-.81-.25-1.09-.52ZM475.45,45.87h4.87s.15-.14.15-.15v-4.88c0-.16-.49-.24-.63-.25-.92-.08-3.22-.11-4.1,0-.33.04-.49.21-.54.54-.11.88-.08,3.19,0,4.11.02.17.07.57.25.63Z"/><path class="cls-6" d="M478.89,41.7c.79-.18,1.23.39.93,1.13-.06.14-1.7,1.81-1.88,1.92-.29.18-.53.21-.85.08-.11-.05-1.11-1.01-1.14-1.1-.23-.53.08-1.2.68-1.18.43.02.74.49.78.49.11,0,1.07-1.25,1.48-1.34Z"/><path class="cls-6" d="M475.38,29.41c.97-.14,3.96-.15,4.94-.02.8.11,1.62.77,1.72,1.6.13,1.03.13,4.14,0,5.18-.1.82-.9,1.52-1.71,1.61-1.06.12-3.81.12-4.88,0-.75-.08-1.45-.64-1.66-1.36-.25-.86-.25-4.72-.02-5.59.2-.75.83-1.3,1.61-1.42ZM475.45,36.21h4.87s.15-.14.15-.15v-4.88c0-.12-.31-.23-.43-.25-.9-.12-3.25-.08-4.2,0-.54.05-.59.09-.63.63-.09,1.03-.09,2.99,0,4.01.02.17.07.57.25.63Z"/><path class="cls-6" d="M479.08,31.94c.62-.06,1,.61.75,1.15-.06.13-1.83,1.89-2,2-.3.19-.49.21-.81.04-.55-.29-1.82-1.83-.75-2.19.71-.24,1.01.37,1.21.34.28-.05,1.01-1.28,1.6-1.34Z"/><path class="cls-6" d="M475.19,48.82c.89-.15,4.41-.14,5.33-.01.73.1,1.44.87,1.52,1.6.13,1.12.12,3.94,0,5.07-.07.69-.6,1.35-1.27,1.56-.78.25-4.97.24-5.76,0-.56-.17-1.04-.66-1.22-1.22-.24-.79-.25-4.98,0-5.76.19-.57.79-1.14,1.39-1.24ZM475.45,50.36c-.21.18-.23.38-.25.63-.09.94-.1,3.09,0,4.01.04.36.16.59.53.64.81.11,3.37.09,4.2,0,.13-.02.53-.13.53-.25v-4.88s-.14-.15-.15-.15h-4.87Z"/><path class="cls-6" d="M478.89,51.36c.73-.2,1.21.43.93,1.12-.06.14-1.7,1.81-1.88,1.92-.26.16-.58.23-.87.1-.07-.03-1.09-1.05-1.12-1.12-.17-.4-.06-.92.36-1.09.71-.29.98.41,1.1.41.1,0,1.08-1.23,1.49-1.34Z"/></g></g></g></svg>